<svg xmlns="http://www.w3.org/2000/svg" version="1.1" id="Layer_1" x="0" y="0" viewBox="0 0 500 215" style="enable-background:new 0 0 500 215" xml:space="preserve">
  <style>.st0{fill:#ffffff}</style>
  <g id="_x5F_Logo">
    <path class="st0" d="M262.9 152.9c-3.5 0-5.9 3.8-4.2 7 4 7.6 11.9 13 21 13h41.8v31.4c0 1.8 1.1 3.5 2.6 4.4.7.3 1.4.5 2 .5 1.1 0 2-.3 2.9-1l45.5-35.2h96.8c13.1 0 23.8-10.8 23.8-24V80.4c0-6.4-2.5-12.4-7-16.9L445.2 20c-4.5-4.5-10.4-7-16.8-7H279.7c-13.1 0-23.8 10.8-23.8 24v19.3c0 2.6 2.2 4.8 4.8 4.8 2.6 0 4.8-2.2 4.8-4.8V36.7c0-7.9 6.4-14.3 14.2-14.3h148.7c3.8 0 7.4 1.5 10 4.2L481.2 70c2.7 2.7 4.1 6.3 4.1 10.1v68.5c0 7.9-6.4 14.3-14.2 14.3h-98.3c-1.1 0-2 .4-2.9 1L331 194.3V168c0-2.7-2.2-4.8-4.8-4.8h-46.6c-5.5 0-10.2-3.1-12.6-7.6-.7-1.8-2.3-2.7-4.1-2.7zM63.3 102v37H42.7v-34c0-5.5-3.7-8.9-8.7-8.9s-8.6 3.4-8.6 8.9v34H4.6V48.9h20.6V83c4-3.4 9.4-5.6 15.6-5.6 13.4 0 22.5 9.7 22.5 24.6zM130.3 116H92c2.3 4.6 7 6.8 13.4 6.8 5.7 0 10.8-1.6 15.7-4.6l7.4 14.1c-7.2 5.5-15.2 8.1-23.9 8.1-19.8 0-33.7-13.5-33.7-31.4S85 77.6 103 77.6c17.7 0 28.7 13.2 28.7 28.4-.1 3.5-.7 7.4-1.4 10zm-39.1-13.4H112c-.3-5.5-4.6-9-10-9-5 0-9.2 3.3-10.8 9zM160.2 138.8h-20.6v-90h20.6v90zM191.9 138.8h-20.6v-90h20.6v90z"/>
    <path class="st0" d="M265.4 108.9c0 17.9-14.7 31.4-32.8 31.4-18.2 0-32.6-13.5-32.6-31.4s14.5-31.4 32.6-31.4c18-.1 32.8 13.5 32.8 31.4zm-44.3 0c0 7.4 4.6 12.4 11.6 12.4 6.4 0 11.5-5.1 11.5-12.4 0-7.4-5.1-12.4-11.5-12.4-6.9-.1-11.6 5.1-11.6 12.4zM317.7 86.1 308 98.7c-4-3.4-8.3-5.2-12.7-5.2-2.6 0-4.2.5-4.2 2.3 0 1.5 1.4 2.2 4.1 3.3l6 2.5c10.6 4.4 17.5 8.7 17.5 18.8 0 12.6-10.5 19.9-24.8 19.9-10.6 0-20.2-4.1-25.8-11.5l9.6-12.3c4.9 4.8 10.6 7.4 16.5 7.4 2.9 0 5.3-.5 5.3-2.6 0-1.5-1.2-2-3.4-3l-6.7-2.7c-10.9-4.5-17.3-9.4-17.3-19.4 0-12 9.4-19 23.3-19 8.5.1 16.4 2.9 22.3 8.9zM348.6 58.8c0 6.8-5.7 12.2-12.7 12.2-7 0-12.6-5.3-12.6-12.2 0-7 5.6-12.3 12.6-12.3s12.7 5.4 12.7 12.3zm-2.3 81.3h-20.6v-60h20.6v60zM453 102v37h-20.6v-34c0-5.6-3.5-8.9-8.5-8.9-4.9 0-8.3 3.3-8.3 8.9v34H395v-34c0-5.6-3.5-8.9-8.5-8.9-4.9 0-8.3 3.3-8.3 8.9v34h-20.6V79h18.8v4.6c4-3.7 9.4-6.1 16.4-6.1 7.5 0 13.4 2.7 17.3 7.6 4.6-4.8 11.7-7.6 19.7-7.6 14.4-.1 23.2 9.6 23.2 24.5z"/>
  </g>
</svg>